<?xml version="1.0" encoding="UTF-8"?>
<!DOCTYPE svg PUBLIC "-//W3C//DTD SVG 1.1//EN" "http://www.w3.org/Graphics/SVG/1.1/DTD/svg11.dtd">
<!-- Creator: CorelDRAW 2018 (64 Bit) -->
<svg xmlns="http://www.w3.org/2000/svg" xml:space="preserve" width="297mm" height="210mm" version="1.1" style="shape-rendering:geometricPrecision; text-rendering:geometricPrecision; image-rendering:optimizeQuality; fill-rule:evenodd; clip-rule:evenodd"
viewBox="0 0 29700 21000"
 xmlns:xlink="http://www.w3.org/1999/xlink">
 <defs>
  <style type="text/css">
   <![CDATA[
    .str0 {stroke:#3E4095;stroke-width:100;stroke-miterlimit:22.9256}
    .str1 {stroke:#3E4095;stroke-width:20;stroke-miterlimit:22.9256}
    .fil0 {fill:#FEFEFE}
    .fil2 {fill:#00AFEF}
    .fil1 {fill:#3E4095}
    .fil3 {fill:#3E4095;fill-rule:nonzero}
   ]]>
  </style>
 </defs>
 <g id="Capa_x0020_1">
  <metadata id="CorelCorpID_0Corel-Layer"/>
  <path class="fil0 str0" d="M25786.76 17859.12c1931.83,-131.28 3365.37,-3825.87 3201.93,-8252.12 -162.18,-4391.35 -1835.34,-7852.31 -3748.19,-7778.49l0.68 3.65 -281.87 -2.34 -16819.91 -32.77c-2825.1,3.03 -4732.54,-5.63 -4732.54,-5.63l0 0c-2080.23,186.02 -3100.49,4142.68 -2923.41,8937.14 177.08,4794.46 1503.99,8614.51 3602.56,8471.89l4835.52 -298.88 -0.28 -4.79 1761.24 -104.06 15104.27 -933.6z"/>
  <path class="fil1" d="M3376.25 4119.2c1252.25,-28.06 2145.6,2851.17 2269.07,5943.25 127.21,3185.4 -457.01,6587.15 -1874.27,7128.36l122.9 -32.8 113.11 -32.71c1569.7,-240.41 2208,-3928.71 2080.75,-7114.1 -124.59,-3119.07 -1160.65,-6426.23 -2499.44,-5933.91l-212.12 41.91z"/>
  <path class="fil1" d="M3225.98 4113.57c-1245.47,-116.76 -2053.33,2710.98 -2058.8,5814.47 -5.64,3197.15 749.91,6685.52 2178.82,7330.49l-123.37 -41.7 -113.65 -40.93c-1351.76,-899.63 -1947.41,-4113.05 -1941.77,-7310.2 5.52,-3130.64 642.5,-5496.81 1863.13,-5793.22l195.64 41.09z"/>
  <path class="fil2 str1" d="M3106.06 6835.75c-671.4,-136.66 -1177.76,1402.66 -1130.98,3438.14 46.76,2035.51 628.95,3796.38 1300.36,3933.02 671.39,136.66 1177.75,-1402.67 1130.99,-3438.17 -46.79,-2035.48 -628.98,-3796.35 -1300.37,-3932.99z"/>
  <path class="fil1" d="M3115.43 6821.16c682.23,145.18 1191.12,1867.98 1282.07,3610.77 93.73,1795.4 -198.6,3620.23 -966.82,3740.46l66.72 -2.54 61.4 -3.72c768.22,-120.23 1039.64,-1945.28 945.91,-3740.67 -91.77,-1758.05 -583.98,-3482.61 -1274,-3600.44l-115.28 -3.86z"/>
  <path class="fil1 str1" d="M3182.89 9330.36c-259.58,-155.09 -460.32,51.76 -448.41,462.02 7.68,263.93 101.54,547.77 236.63,757.95l-187.64 927.22 898.4 536.77 -241.6 -1152.38c146.92,-33.88 242.5,-221.21 234.16,-507.96 -11.91,-410.26 -232,-868.55 -491.54,-1023.62z"/>
  <path class="fil1" d="M24770.47 1815.47c2445.19,17.68 4086.87,3849.55 4200.86,7772.33 113.67,3912.23 -1096.49,7927.21 -3738.02,8266.35l527.89 -4.83c2641.51,-339.16 3691.28,-4374.19 3577.59,-8286.35 -113.39,-3900.13 -1650.34,-7683.16 -4071.05,-7744.01l0.03 0.21 -135.91 -1.03 -121.54 0.78 -230.43 -3.39 -9.42 -0.06z"/>
  <path class="fil1" d="M21229.85 1809.7c2447.96,15.55 4094.08,3913.92 4210.47,7902.99 116.03,3975.75 -1091.79,8054.44 -3733.22,8396.2l228.54 -12.13 210.41 -14.26c2641.42,-341.74 3777.78,-4418.92 3661.73,-8394.67 -116.43,-3989.01 -1674.78,-7859.82 -4122.74,-7875.35l-210.53 1.1 -244.66 -3.88z"/>
  <path class="fil1" d="M17369.8 1804.32c2448.06,18.25 4096.34,3976.15 4214.97,8024.56 118.18,4034.89 -1087.46,8172.91 -3728.78,8517.09l228.53 -12.08 210.42 -14.28c2641.35,-344.17 3775.48,-4480.73 3657.24,-8515.59 -118.61,-4048.35 -1679.13,-7978.15 -4127.18,-7996.39l-210.53 0.91 -244.67 -4.22z"/>
  <path class="fil1" d="M12820.35 1797.09c2448.17,21.39 4099.06,4049.67 4220.26,8168.21 120.76,4104.78 -1082.27,8312.95 -3723.51,8659.96l228.55 -11.98 210.42 -14.28c2641.22,-347.04 3772.78,-4553.81 3651.98,-8658.57 -121.21,-4118.5 -1684.3,-8118.07 -4132.46,-8139.49l-210.55 0.7 -244.69 -4.55z"/>
  <path class="fil1" d="M8071.66 1793.34c2394.65,131.01 4006.24,4180.3 4128.51,8317.61 123.52,4179.17 -1076.78,8461.98 -3717.89,8812.08l228.53 -11.96 210.44 -14.29c2641.11,-350.08 3769.91,-4631.52 3646.37,-8810.69 -123.96,-4193.1 -1689.78,-8266.97 -4138.06,-8291.76l-210.58 0.41 -75.77 -1.5 -71.55 0.1z"/>
  <path class="fil1" d="M3465.42 1803.06c2318.07,284.21 3872.34,4326.29 3994.8,8452.71 126.18,4250.97 -1071.47,8605.83 -3712.47,8958.86l228.53 -11.89 210.42 -14.3c2641.01,-353 3767.17,-4706.58 3640.97,-8957.51 -123.55,-4162.5 -1620.55,-8210.25 -3968.35,-8428.9l-393.9 1.03z"/>
  <path class="fil2 str1" d="M27965.54 8134.76l126.33 -3.31c29.11,-0.76 51.02,8 66.65,26.97 14.75,18.29 27.3,68.93 36.78,151.28l78.74 674.28c2.12,13.57 3.43,27.18 3.87,40.09 1.66,48.79 -7.14,83.48 -25.6,103.35 -19.28,19.88 -57.99,30.97 -117.02,32.52 -71.48,1.87 -121.88,-12.61 -150.4,-44.18 -28.57,-31.54 -58.59,-107.6 -88.46,-227.41 -75.28,-303.9 -173.56,-454.26 -294.08,-451.11 -100.55,2.66 -146.68,113.72 -139.17,333.94l80.75 2365.85c5.36,157.11 61.22,233.91 166.77,231.14 133.82,-3.52 204.99,-136.06 211.83,-398.31 2.43,-75.44 17.25,-128.97 46.16,-159.19 28.08,-30.16 87.44,-46.08 178.03,-48.46 68.15,-1.79 115.9,7.73 144.05,28.53 27.36,21.55 42.1,63.51 44.24,125.94 6.84,200.12 -57.32,368.39 -191.61,504.04 -135.09,136.36 -306.54,206.93 -513.49,212.36 -201.15,5.28 -379.21,-45.33 -535.92,-151.8 -155.92,-107.19 -293.73,-294.57 -414.37,-562.8 -119.79,-268.28 -187.3,-613.29 -201.74,-1036.52 -13.64,-399.58 22.01,-720.03 106.94,-961.35 84.93,-241.32 197.49,-428.8 337.68,-562.45 140.18,-133.62 306.67,-203.32 499.48,-209.12 116.36,-3.05 218.7,21.55 306.15,73.83 33.09,18.5 57.51,27.2 74.12,26.77 19.11,-0.52 45.88,-20.62 80.29,-60.29 29.57,-35.94 57.23,-53.9 83,-54.59z"/>
  <path class="fil1" d="M25513.25 4799.92l1647.57 -209.85c36.64,-4.67 58.12,-0.84 63.3,11.1 2.05,4.77 3.43,10.14 3.9,15.63 -0.53,3.09 -1.28,12.25 -2.44,27.03l30.61 2144.41 159.12 -20.28c89.38,-11.38 147.2,-36.9 173.63,-76.04 27.14,-39.72 38.7,-106.72 34.67,-200.95 -3.22,-51 5.01,-84.28 26.03,-101.05 20.34,-16.21 65.73,-29.05 135.46,-37.94 91.16,-11.61 145.65,-16.54 164.48,-14.38 18.86,2.1 30.85,10.16 36.84,24 1.66,3.84 4.14,22.66 7.68,56.99l63.17 439.94 -1703.89 217.04c-34.85,4.46 -53.92,1.82 -57.85,-7.27 -6.2,-14.3 -9.04,-36.12 -6.74,-65.64l19.5 -2137.69 -180.6 22.98c-111.74,14.27 -168.6,98.59 -169.47,253.41 0.07,58.95 -12.97,96.4 -39.57,113.4 -25.88,16.4 -79.54,29.8 -160.91,40.15 -67.01,8.53 -109.67,12.45 -128.97,11.38 -20.23,-0.95 -33.1,-8.9 -39.51,-23.68 -3.31,-7.64 -6.78,-24.34 -10.59,-50.57l-65.42 -432.12z"/>
  <path class="fil1" d="M24691.8 2028.99c9.53,9.56 20.14,21.7 31.77,36.3 27.29,34.29 21.59,57.7 -17.32,69.87 -30.18,9.07 -47.78,18.59 -52.62,27.79 -5.38,9.59 2.56,27.22 23.02,52.92l932.56 1171.67c25.56,32.12 68.45,57.66 128.43,76.25 59.38,18.97 123.64,27.63 191.85,26.03 62.24,-1.48 107.14,-13.79 132.73,-37.32 26.71,-23.17 29,-48.69 7.38,-75.82l-932.52 -1171.66c-15.9,-19.98 -31.52,-34.17 -47.41,-42.14 -15.64,-7.64 -46.65,-17.1 -92.66,-28.01 -71.63,-16.87 -122.78,-44.03 -152.91,-81.88 -7.26,-9.11 -12.86,-17.1 -16.78,-23.98l732.77 0.24 25.82 32.45c17.63,22.14 25.3,36.15 23.3,42.37 -1.42,5.85 -16.77,11.67 -44.32,17.43 -68.83,12.88 -89.83,36.66 -62.56,70.92l908.64 1141.67c86.11,108.17 80.12,195.6 -18.8,262.3 -98.09,66.68 -280.28,102.97 -546.33,109.24 -297.55,7.03 -551.08,-21.2 -760.27,-84.27 -209.44,-63.43 -364.59,-157.97 -465.17,-284.37l-877.15 -1102.02c-23.27,-29.28 -77.28,-50.21 -162.58,-62.38 -43.19,-6.26 -70.45,-12.15 -82.67,-17.69 -12.51,-5.89 -26.14,-18.65 -41.78,-38.28 -32.11,-40.37 -46.61,-66.19 -42.91,-76.83 1.16,-4.38 6.81,-7.99 16.89,-10.82 445.38,-0.07 867.32,-0.05 1261.6,0.02z"/>
  <path class="fil1" d="M27163.33 13606.2l273.3 -302.12c128.54,-143.69 196.68,-228.95 205.54,-257.09 7.34,-23.28 -8.05,-41.05 -45.47,-53.21 -32.47,-11.79 -40.79,-42.82 -24.94,-93.04 17.89,-56.79 32.11,-92.77 43.63,-108.58 11.29,-15.19 32.05,-23.63 61.34,-24.73l494.41 -18.54c35.15,-1.3 47.86,13.56 37.86,45.26l-38.82 123.19c-7.36,23.3 -34.11,46.19 -81,68.59 -47.62,22.48 -78.56,42.55 -94.47,60.87l-791.19 909.48 144.72 1251.42c5.71,37.01 10.44,61.05 15.08,71.51 4.88,9.86 19.42,21.12 43.83,33.22 30.46,13.63 47.9,27.14 53.81,40.52 6.09,12.76 3.51,37.1 -7.97,73.55 -16.42,52.04 -33.24,89.32 -51.19,111.85 -17.95,22.52 -44.26,34.73 -78.69,36.04l-910.45 34.11c-46.14,1.74 -63.55,-14.15 -53.2,-47.04l35.63 -113.01c11.12,-35.27 40.13,-62.96 87.17,-83.63 53.14,-23.89 84.09,-48.66 92.57,-75.56 10.57,-33.5 12.71,-70.19 7.61,-111.34l-52.13 -447.75 -404.19 464.82c-54.74,61.14 -85.89,104.85 -94.36,131.76 -6.99,22.13 11.65,45.64 56.64,70.57 9.09,5.57 17.26,11.75 22.88,19.22 5.8,6.86 -1.29,40.82 -19.93,100 -16.21,51.42 -28.78,82.04 -38.38,91.87 -9.41,9.23 -27.76,14.63 -54.89,15.64l-517.81 19.41c-43.97,1.64 -60.86,-13.68 -50.48,-46.58l40.89 -129.74c6.43,-20.33 36.26,-41.53 89.74,-64.22 43.91,-17.6 78.69,-38.41 104.72,-61.23 26.74,-22.89 68.34,-67.58 126.24,-134.15l699.76 -816.84 -143.71 -1243.17c-4.71,-44.73 -28.52,-84 -71.95,-118.42 -21.28,-15.16 -28.28,-32.03 -22.82,-49.38l33.56 -106.44c11.5,-36.47 45,-55.44 100.68,-57.55l900.16 -33.7c35.9,-1.37 48.19,14.72 37.65,48.19l-37.88 120.19c-10,31.7 -38.22,54.62 -83.93,68.75 -49.2,16.02 -76.84,34.78 -83.8,56.9 -9.43,29.89 -10.88,68.94 -3.47,118.92l47.7 411.21z"/>
  <path class="fil1" d="M25345.26 16634.09l-117.62 15.62c-38.04,5.06 -78.96,19.02 -122.54,41.59 -43.91,22.89 -123.17,79.03 -237.47,168.96 -50.7,39.38 -93.13,65.34 -128.8,78.6 -35.3,12.93 -92.29,24.6 -169.21,34.84 -74.28,9.83 -118.59,12.78 -132.52,8.45 -15.22,-3.86 -11.67,-16.39 9.07,-36.8 12.47,-12.26 25.44,-24.28 39.31,-36.42l267.83 -236.55c31.21,-27.69 60.67,-46.91 89.29,-57.77 29.87,-11.33 85.32,-22.23 168.43,-33.26l1898.29 -252.02c54.82,-7.3 85.67,-9.03 92.84,-5.58 6.83,3.81 -3.11,21.9 -30.47,54.09l-164.5 199.59c-12.71,15.51 -27.54,31.61 -44.48,48.28 -20.05,19.75 -41.77,35.85 -65.74,48.16 -23.46,12.54 -70.17,23.15 -138.27,32.2 -88.4,11.72 -141.03,16.08 -158.86,12.55 -19.09,-3.07 -17.12,-21.55 2.58,-54.5 31.36,-54.19 48.45,-97.36 53.06,-129.76 4.6,-32.41 -18.29,-45.26 -66.93,-38.78l-77.8 10.33 -1301.84 1281.43c-37.35,36.76 -21.35,56.41 48.43,59.21 12.24,0.45 22.14,1.4 29.74,2.86l-1031.7 54.3 1289.88 -1269.62z"/>
  <path class="fil1" d="M21915.68 17247.53l140.28 -4.22c72.61,-2.17 136.57,-19.27 193.89,-51.78 57.34,-32.52 154.15,-106.37 292.06,-221.64 50.53,-44.35 93.01,-71.96 126.81,-81.9 33.32,-10.37 82.81,-16.32 147.98,-18.27 71.78,-2.17 115.71,-0.38 131.41,5.86 15.7,6.23 16.75,18.23 3.93,36.03 -8.87,12.31 -27.47,32.5 -55.74,60.57l-314.81 322.72c-33.52,33.14 -61.69,55.4 -85.25,66.82 -22.42,10.93 -57.7,17.36 -104.74,18.77l-1591.78 47.85c-67.66,2.02 -84.76,-20.2 -51.58,-66.26 25.62,-35.59 46.2,-58.53 62.82,-69.29 16.29,-10.31 40.87,-18.63 73.68,-24.97 103.11,-18.7 183.16,-67.07 239.02,-144.62l1142.91 -1586.83c23.66,-32.81 11.03,-55.64 -37.4,-68.02 -41.78,-10.34 -63.09,-22.2 -64.48,-35.99 -1.02,-14.25 10.27,-37.77 33.93,-70.62 28.26,-39.25 50.94,-64 67.41,-73.43 15.98,-9.86 45.67,-15.2 86.94,-16.45l1116.47 -33.57c42.09,-1.25 67.01,3.34 73.63,14.3 7.83,10.48 -6.42,40.34 -41.93,89.6 -21.34,29.67 -40.43,49.41 -58.7,60.22 -17.94,10.36 -51.75,20.32 -100.58,29.82 -91.69,17.47 -153.5,48.36 -184.71,91.67l-1241.47 1723.63z"/>
  <path class="fil1" d="M23713.65 14074.21c-132.85,51.92 -263.67,81.99 -392.46,90.26 -317.02,20.35 -547.43,-87.99 -689.92,-324.51 -142.46,-236.51 -177.06,-546.09 -104.49,-928.72 75.27,-396.89 231.15,-726.83 467.66,-989.83 236.49,-262.99 519.28,-404.77 848.45,-425.88 306.29,-19.65 533.86,85.06 682.78,313.56 148.86,229.06 182.45,558.79 100.73,989.71 -70.99,374.39 -230.13,695.31 -478.19,963.4 65.79,66.81 144.73,108.93 234.74,126.46 36.15,6.9 56.15,17.01 59.98,30.33 3.94,12.75 -7.03,85.58 -32.32,218.97 -9.48,49.95 -14.8,81.74 -15.78,94.3 -1.7,16.37 -3.89,31.68 -6.7,46.52 -18.53,97.72 -86.46,150.34 -203.83,157.87 -64.41,4.12 -133.44,-12.08 -205.79,-48.09 -72.34,-36.03 -160.58,-141 -264.86,-314.35zm-101.51 -556.91l317.75 -1675.42c9.07,-47.76 0.41,-87.87 -25.53,-118.74 -25.85,-31.42 -62.8,-45.3 -110.04,-42.27 -53.68,3.43 -97.69,23.06 -133.58,59.54 -35.07,35.86 -57,76.85 -65.77,122.96l-371.76 1960.31c-8.96,47.22 -0.19,86.78 25.56,118.75 25.64,32.53 60.33,47.1 103.99,44.3 44.36,-2.84 86.74,-21.28 125.61,-54.68 38.94,-33.95 61.03,-64.65 66.34,-92.65 9.36,-49.42 -36.96,-103.36 -139.59,-162.4 -28.65,-16.6 -40.1,-41.9 -33.34,-77.57l6.08 -43.23c8.33,-43.93 33.97,-67.26 76.19,-69.98 19.32,-1.23 71.81,8.95 158.09,31.08z"/>
  <path class="fil1" d="M23138.84 4806.02l319.77 678.7c16.21,34.39 66.71,57.76 151.37,69.7 36.41,5.11 62.19,11.15 78.65,17.61 16.71,6.9 36.79,36.17 61.51,88.64 15.18,32.19 18.16,51.89 9.64,59.01 -9.27,7.18 -31.59,11.8 -67.96,13.44l-1074.92 48.68c-52.63,2.37 -85.15,-9.66 -97.44,-35.69l-35.3 -74.95c-14.56,-30.89 9.87,-54.53 73.51,-70.45 33.05,-8.7 53.07,-18.16 60.91,-28.42 6.82,-10.66 4.28,-29.48 -8.81,-57.26l-300.22 -637.24 -888.85 -900.19c-44.06,-44.84 -100.97,-73.35 -169.73,-85.08 -37.25,-6.88 -60.1,-20.25 -69.47,-40.11l-11.96 -25.4c374.33,-4.1 744.34,-8.14 1108,-11.99 0.5,2.66 0.76,4.89 0.74,6.66 -0.83,9.96 -11.39,19.43 -31.62,28.45 -28.8,14.38 -38.92,31.49 -29.59,51.31 5.21,11.05 15.29,24.09 29.91,38.3l565.59 563.07 27.57 -590.82c1.35,-5.48 -0.82,-13.48 -5.99,-24.49 -12.32,-26.14 -52.59,-51.82 -120.04,-77.06l521.06 -5.41c-34.28,24.18 -52.26,55.32 -54.67,92.91l-41.66 908.08z"/>
  <path class="fil2 str1" d="M23753.73 9360.12l-537.04 71.8 -30.17 181.43c-0.13,3.98 -1.76,10.19 -4.93,18.57 -12.84,38.93 -19.68,73.06 -20.56,103.09 -1.37,46.68 30.48,82.26 96.29,106.02 34.71,11.98 56.22,27.03 64.51,43.86 7.52,16.94 11.04,46.35 9.82,88.38 -1.57,53.36 -5.42,85.75 -12.38,97.98 -6.9,12.22 -22.47,19.63 -46.69,22.85l-566.43 75.75c-31.55,4.2 -46.07,-23.73 -44.3,-83.77 2.08,-71.36 29.46,-133.48 81.38,-184.28 48.87,-47.06 77.27,-93.37 85.94,-139.7l465.66 -2352.93c8.37,-36.33 12.95,-67.5 13.71,-93.51 1.18,-40.02 -29.32,-71.8 -90.05,-94.93 -28.16,-11.51 -41.81,-44.23 -40.27,-97.59 2.09,-71.35 7.8,-116.63 17.1,-134.48 8.57,-17.77 32.3,-29.56 68.98,-34.47l822.5 -109.98c49.87,-6.66 84.47,9.97 103.72,50.59 18.58,40.02 35.66,130.74 51.97,272.73 6.44,54.95 13.63,109.13 20.85,162.64l290.12 2099.71c13.81,102.47 52.56,176.34 116.24,222.32 17.95,11.53 29.34,21.31 34.96,29.2 4.87,7.98 7.08,32.92 5.83,76.29 -1.96,66.68 -8.28,108.05 -18.25,124.01 -10.72,16.71 -32.22,26.89 -65.23,31.32l-952.38 127.32c-28.6,3.82 -41.81,-18.99 -40.35,-68.34 1.83,-62.69 6.64,-102.52 14.41,-118.86 7.82,-16.96 28.89,-37.73 63.99,-63.7 51.47,-35.44 78.23,-75.55 79.53,-119.58 1.32,-45.35 -11.75,-148.56 -38.48,-309.74zm-207.28 -1708.23l-287.27 1551.13 476.91 -63.77 -189.64 -1487.36z"/>
  <path class="fil1" d="M14560.72 14128.5c203.14,27.34 357.45,110.37 464.09,249.93 106.9,138.91 169.38,325.05 186.94,557.7 17.37,233.27 -33.99,522.16 -153.42,866.73 -143.47,414.01 -355.57,751.3 -637.03,1011.81 -281.46,260.5 -588.32,368.41 -920.53,323.71 -315.26,-42.45 -515.92,-215.4 -601.47,-518.16 -85.54,-302.76 -51.96,-674.46 100.71,-1115.12 156.35,-451.18 376.16,-804.32 659.92,-1058.67 283.77,-254.35 584.1,-360.54 900.79,-317.93zm12.76 453.19c52.4,-151.23 23.58,-234.25 -87.17,-249.14 -46.55,-6.27 -93.18,6.93 -138.71,40.37 -46.05,32.7 -78.37,77 -97.08,130.91l-759.34 2191.51c-25.59,73.75 -28.69,131.7 -8.83,174.59 19.32,42.19 52.18,66.71 97.31,72.79 50.07,6.74 98.28,-8.84 144.15,-47.42 44.93,-38.06 76.77,-83.09 94.82,-135.14l754.85 -2178.47z"/>
  <path class="fil1" d="M16580.37 1796.68l707.3 -11.21c47.56,-0.77 81.93,2.34 103.37,9.64 20.43,6.95 44.04,25.51 70.03,55.66 23.52,27.27 35.17,46.37 34.3,57.31 -0.96,10.9 -17.1,21.72 -48.12,32.06 -28.23,8.8 -42.59,18.5 -43.72,28.34 -0.92,10.19 8,26.07 27.5,48.69l1076.98 1248.82c15.46,17.92 31,31.14 46.61,39.63 15.21,8.1 45.41,16.76 89.82,25.14 61.14,11.75 101.12,28.58 120,50.48 47.1,54.58 69.96,85.13 68.13,90.98 -0.84,6.2 -22.14,9.45 -61.57,10.08l-890.06 14.11c-38.73,0.62 -72.62,-16.3 -102.33,-50.76 -25.34,-29.43 -42.22,-51.37 -50.51,-65.8 -8.31,-14.4 6.23,-26.29 43.04,-36.32 41.27,-11.22 50.31,-30.28 27.43,-56.83l-764.03 -885.91 256.57 720.74 -219.49 3.48 -951.44 -687.16 742.07 860.42c24.13,27.99 65.87,48.46 124.88,60.97 71.75,14.51 124.46,41.31 158.21,80.43 38.69,44.88 29,67.97 -28.75,68.88l-430.78 6.84c-48.91,0.78 -91.96,-20.38 -128.79,-63.09 -25.99,-30.14 -25.42,-53.44 1.43,-70.24 19.1,-13.78 28.86,-24.84 30.18,-32.89 0.36,-8.37 -7.63,-22.4 -25.29,-42.87l-1047.89 -1215.07c-29.1,-33.76 -56.82,-59.5 -83.53,-76.94 -26.38,-17.75 -63.52,-32.09 -109.82,-42.62 -49.69,-10.49 -79.29,-21.68 -89.5,-33.5l-36.97 -45.29c-26.79,-32.68 -40.36,-53.19 -39.67,-61.19 0.36,-8.37 14.57,-12.64 42.41,-13.09l736.52 -11.67 880.03 644.27 -234.55 -654.52z"/>
  <path class="fil1" d="M7086.67 18758.39l-201.99 259.99 -817.4 44.37 1094.03 -1408.37c32.69,-42.1 16.72,-68.61 -47.47,-80.11 -33.21,-7.1 -39.17,-25.27 -17.84,-54.58l50.06 -67.2c22.6,-29.05 43.13,-49.05 62.47,-60.14 19.39,-11.09 49.26,-20 91.28,-27.02l1235.13 -206.47c355.12,-59.35 584.84,-37.6 689.22,65.26 104.36,102.88 61.17,276.6 -128.73,521.07 -107.03,137.77 -235.31,266 -384.09,384.59 -148.36,118.09 -292.23,210.99 -430.82,278.64 -138.13,67.1 -285.01,127.85 -439.24,181.53 -155.49,54.33 -305.56,93.35 -452.21,117.87l-302.4 50.57zm1085.69 -1397.67l-954.95 1229.35 169.75 -28.41c58.49,-9.76 125.6,-37.98 201.7,-84.28 76.1,-46.28 148.99,-114.27 219.03,-204.4l568.51 -731.9c127.64,-164.32 100.83,-231.33 -80.45,-201.03l-123.59 20.67z"/>
  <path class="fil1" d="M18900.57 14183.79l-261.1 878.61c-12.37,41.71 -17.52,69.02 -14.62,81.85 2.1,12.95 16.31,25.18 43.01,35.53 33.64,14.47 44.03,44.6 29.84,92.33 -20.28,68.27 -40.65,111.78 -61.69,129.98 -20.43,18.71 -51.59,30.98 -94.47,37.54l-961.93 147.15c-54.59,8.35 -72.7,-18.29 -54.39,-79.94 17.41,-58.6 31.23,-97.63 40.95,-115.28 9.71,-17.6 28.11,-31.98 55.98,-43.17 91.14,-38.76 148.32,-95.94 170.75,-171.46l616.64 -2075.11c22.81,-76.73 0.15,-118.26 -68.25,-123.36 -33.17,-3.59 -53.69,-9.66 -59.56,-17.42 -6.49,-8.25 -3.07,-34.74 10.38,-80.04 27.12,-91.26 72.56,-141.46 136.48,-151.23l1264.4 -193.43c250.99,-38.39 453.77,0.38 607.55,116.44 153.76,116.07 194.39,297.31 121.13,543.84 -104.15,350.49 -402.97,614.82 -897.16,793.1 400.35,7.39 549.22,182.46 447.58,524.48l-125.14 421.17c-10.61,35.67 -1.19,59.03 27.76,71.9 34.22,14.95 44.81,44.48 31.9,87.99 -20.51,68.9 -37.96,110.19 -52.08,125.05 -14.68,14.36 -44.7,25.3 -89.93,32.22l-608.81 93.14c-73.27,11.2 -123,-11.75 -151.34,-69.15 -27.75,-56.9 -27.42,-133.08 0.59,-227.34l212.27 -714.26c41.46,-139.59 -29.87,-195 -213.05,-166.98l-103.69 15.85zm414.78 -1395.86l-353.37 1189.2 150.47 -23.01c152,-23.26 263.23,-152.19 332.73,-386.03l168.79 -568.04c29.44,-99.09 25.93,-164.86 -10.37,-197.98 -37.1,-32.97 -106.58,-41.95 -209.49,-26.24l-78.76 12.1z"/>
  <path class="fil2 str1" d="M19876.09 8082.55c11.54,-7.82 43.71,-41.21 97.47,-100.92 34.23,-38.55 78.27,-59.61 133.99,-62.57 12.31,-0.66 64.09,1.61 154.44,6.9 17.54,12.73 30.78,41.54 37.83,86.51l126.69 708.8c6.36,37.82 9.43,59.97 9.2,67.19 -0.85,26.67 -10.86,45.21 -30.94,54.2 -19.18,9.65 -70.31,16.69 -153.44,21.12 -93.53,4.97 -154.65,-1.12 -181.48,-17.7 -26.8,-16.58 -77.28,-90.17 -150.57,-219.44 -154.51,-273.98 -296.48,-407.52 -425.9,-400.63 -91.63,4.87 -139.46,56.37 -142.58,155.15 -3.86,122.59 127.44,355.32 393.85,699.63 306.27,396.91 503.73,685.15 595.17,865.27 90.55,179.48 132.19,384.57 124.96,613.89 -8.56,271.83 -99.18,483.98 -270.93,637.82 -171.78,153.83 -363,236.72 -571.78,247.83 -133.19,7.08 -259.83,-14.97 -380.79,-66.84 -47.44,-20.52 -84.88,-29.3 -112.29,-27.86 -24.53,1.32 -43.85,15.29 -59.82,43.51 -31,55.64 -103.62,86.13 -216.98,92.15 -44.41,2.38 -74.47,-1.07 -89.24,-11.07 -15.74,-9.96 -26.21,-36.76 -32.33,-81.79l-115.76 -696.43c-15.11,-89.19 -23.03,-136.26 -22.86,-142.05 1.3,-41.09 51.04,-63.9 148.34,-69.09 131.31,-6.98 209.28,2.55 232.07,27.99 23.73,25.36 55.81,84.12 96.24,177.73 150.8,332.45 307.9,494.71 471.33,486 60.45,-3.23 110.1,-22.41 148.94,-58.32 38.86,-35.89 59.11,-79.44 60.69,-129.9 2.8,-88.72 -35.44,-191.78 -115.69,-309.17 -79.32,-116.71 -178.04,-246.78 -294.23,-389.63 -279.69,-342.17 -475.67,-616.8 -589.89,-823.08 -113.25,-207.05 -166.86,-421.6 -159.84,-643.69 7.89,-250.93 85.96,-454.5 234.26,-611.41 148.29,-156.89 326.34,-240.51 534.14,-251.57 144.55,-7.69 316.82,32.81 517.73,121.47z"/>
  <path class="fil1" d="M17694.95 4273.05l1062.67 0.12c41.93,0.01 71.15,3.9 86.72,11.19 16.57,7.77 32.34,28.69 48.55,63.7 20.97,45.2 28.93,73.86 22.91,85.52 -5.79,12.16 -25.88,21.37 -61.1,29.16 -40.9,8.76 -63.06,18.46 -67.56,30.13 -4.75,11.17 2.22,35.97 19.79,73.87l727.61 1569.49c101.21,218.24 95.76,405.36 -16.46,560.87 -112.46,155.05 -361.32,232.77 -746.78,232.73 -72.38,0 -118.12,-3.42 -136,-10.7 -18.6,-7.3 -33.21,-22.38 -44.25,-46.18l-25.02 -53.95c-10.15,-21.89 -12.87,-35.99 -9.9,-42.79 3.9,-6.3 23.18,-10.68 58.11,-12.62 246.37,-14.06 312.87,-143.35 199.76,-387.34l-807.42 -1741.54c-31.97,-69.03 -62.62,-113.76 -91.43,-133.19 -28.83,-19.46 -72.39,-34.53 -130.42,-44.75 -58.29,-10.69 -95.54,-33.55 -112,-69.02 -27.51,-59.3 -40.23,-93.32 -37.21,-101.59 2.81,-8.74 22.87,-13.13 59.43,-13.11z"/>
  <path class="fil1" d="M12395.41 3064.81l317.53 -10.46 -454.69 -695.85c-14.49,-22.19 -26.76,-36.75 -37.48,-43.62 -10.37,-7.4 -32.15,-16.31 -65.05,-26.35 -35.19,-10.37 -66.12,-35.41 -92.62,-75.99 -19.3,-29.53 -33.2,-52.53 -41.72,-69.01 338.36,1.3 680.51,2.76 1026.17,4.42 5.83,8.47 12.04,17.71 18.59,27.71 20.98,32.14 29.53,51.6 24.39,57.56 -4.77,6.44 -24.17,18.17 -59.42,35.23 -36.83,20.02 -42.47,49.61 -17.17,88.32l1082.68 1657.04c28.39,43.42 79.4,76.95 153.35,101.05 59.41,18.77 94.19,35.96 104.98,52.47l56.74 86.87c12.06,18.43 15.7,30.36 12.24,36.73 -4.12,6.41 -25.35,10 -63.34,11.26l-861.67 28.33c-28.49,0.94 -49.26,-2.22 -60.01,-9.12 -11.71,-7.31 -37.32,-41.21 -76.8,-101.64 -19.73,-30.22 -18.2,-54.38 4.31,-72.95 26.1,-21.59 30.35,-45.85 12.75,-72.75l-564.48 -863.94 -317.5 10.46 568.47 870.05c19.12,29.28 51.48,52.3 96.86,68.68 46.56,18.22 81.43,45.06 104.57,80.47 32.37,49.56 46.81,78.02 43.28,85.38 -2.52,7.8 -16.34,12.1 -40.06,12.88l-871.84 28.68c-27.83,0.92 -48.26,-2.75 -59.6,-10.6 -12.33,-8.28 -37.04,-40.74 -74.03,-97.37 -17.29,-26.43 -25.28,-44.02 -24.05,-52.73 1.54,-8.26 13.04,-19.26 36.55,-32.07 43.05,-22.15 52.98,-50.45 30.76,-84.45l-1092.52 -1672.1c-17.28,-26.47 -59.05,-51.14 -124.94,-73.55 -66.58,-23.37 -114.84,-57.97 -145.06,-104.22 -32.07,-49.09 -46.05,-79 -40.69,-88.83 2.2,-4.49 7.51,-8.08 15.98,-10.81 321.94,0.84 649.19,1.88 980.7,3.09 8.8,9.53 17.81,21.31 26.95,35.29l42.56 65.14c8.08,16.62 1.69,32.27 -19.85,46 -30.54,16.91 -33.95,43.53 -10.48,79.43l454.66 695.87z"/>
  <path class="fil1" d="M13604.67 6709.31l296.51 1347.07c12.34,56.04 60.8,96.42 145.5,121.81 71.02,21.91 111.46,55.34 121.33,100.29 20.51,93.15 29.43,144.67 26.14,155.3 -3.46,9.95 -25.55,15.95 -65.61,17.27l-621.86 20.75c-31.24,1.04 -53.44,-8.05 -64.94,-27.35 -12.48,-19.93 -27.09,-67.98 -44.28,-146.16 -7.76,-35.19 7.48,-61.27 46.15,-76.35 73.69,-32.01 106.44,-66.56 98.4,-103.03l-496.27 -2254.5c-12.05,-54.7 -27.46,-95.52 -45.51,-122.5 -18.01,-26.94 -50.32,-48.85 -97.5,-65.01 -41.88,-14.32 -70.3,-29.79 -87.76,-46.9 -16.87,-17.83 -30.74,-51.48 -41.64,-101 -19.63,-89.24 -0.68,-135.15 56.2,-137.03l646.71 -21.58 1122.09 1474.42 -243.91 -1108.04c-13.48,-61.24 -60.9,-104.27 -142.62,-127.16 -48.46,-14.76 -82.27,-32.67 -99.82,-53.76 -18.2,-20.37 -33.65,-61.19 -47.14,-122.43 -8.45,-38.42 -8.65,-61.39 -0.93,-70.17 6.97,-8.79 24.55,-13.28 51,-14.16l647.47 -21.61c36.9,2.69 63.71,43.78 81.22,123.29 10.32,46.89 13.58,76.31 9.2,89.56 -4.48,12.63 -18.22,23.59 -41.02,33.54 -50.64,19.4 -81.25,38.14 -92.05,54.92 -9.9,17.37 -12.09,40.4 -5.66,69.73l597.21 2713.08 -400.63 13.35 -1305.98 -1715.64z"/>
  <path class="fil2 str1" d="M14152.32 9873.92l1.7 -113.69c0.65,-43.99 31.31,-66.03 92.96,-66.1l1330.4 -1.66c50.26,-0.06 82.43,5.05 97.46,15.29 14.08,9.51 21.21,39.56 20.47,90.17 -1.14,75.54 -6.61,123.21 -17.31,141.55 -10.69,18.34 -33.64,30.11 -68.77,34.54 -114.96,15.55 -173.67,72.82 -175.12,170.38l-38.63 2587.22c-0.81,54.28 40.29,97.48 123.28,128.91 53.73,19.73 85.72,37.3 95.91,52.69 11.14,15.38 16.46,41.76 15.88,79.92l-1.23 82.12c-0.68,44.74 -6.73,70.42 -18.19,76.3 -10.5,5.15 -39.97,8.11 -85.49,8.17l-1356 1.67c-52.13,0.07 -77.52,-16.05 -77.06,-47.57 1.54,-102.68 7.23,-165.76 17.07,-189.23 8.85,-22.75 42.31,-40.38 97.52,-53.64 100.83,-21.4 151.7,-62.53 152.6,-122.66l38.09 -2551.31c0.88,-60.12 -7.93,-105.57 -25.48,-136.36 -18.51,-30.78 -58.92,-56.39 -121.19,-76.13 -46.22,-15.33 -74.48,-29.22 -84.72,-41.69 -10.24,-11.71 -14.66,-35.18 -14.15,-68.89z"/>
  <path class="fil1" d="M8599.39 7404.07l-752.52 -2232.23c-12.69,-24.65 -44.5,-43.55 -95.61,-57.39 -40.81,-11.06 -70.59,-26.18 -90.15,-45.4 -18.83,-19.23 -39.42,-60.9 -60.63,-123.83 -15.26,-45.3 -15.94,-75.25 -2.68,-89.85 14.16,-13.97 59.27,-20.27 136.93,-18.23l1029.71 27.21c293.92,7.74 576.47,130.58 847.49,367.81 271,237.28 497.05,625.45 678.8,1164.65 165.69,491.37 196.68,856.98 92.81,1096.16 -104.79,238.52 -309.91,354.1 -616.98,345.98l-1135.26 -29.97c-31.49,-0.83 -54.87,-7.7 -71.83,-21.23 -16.69,-12.91 -32.08,-41.4 -46.92,-85.42 -17.63,-52.23 -26.64,-85.52 -26.7,-98.61 -0.28,-13.72 15.13,-28.27 46.79,-44.28 67.8,-33.76 90.29,-85.53 66.75,-155.37zm8.74 -2326.85l860.31 2551.83 114.31 3.02c80.62,2.13 129.71,-24.64 147.79,-80.92 18.11,-56.23 2.77,-157.66 -46.42,-303.64l-634.84 -1883.04c-27.77,-82.44 -73,-149.72 -136.54,-202.52 -63.59,-52.8 -137.52,-80.32 -222.53,-82.57l-82.08 -2.16z"/>
  <path class="fil1" d="M20847.75 1948.04c284.53,35.3 505.03,84.11 661.29,146.2 157.22,62.37 293.97,151.08 411.33,266.42 178.93,175.86 229.75,310.41 151.66,402.92 -78.1,92.53 -290.25,145.45 -637.1,158.8l-957.08 36.8c-39.44,1.51 -70.01,-8.76 -92.14,-30.49l-64.06 -62.99c-17.78,-17.45 -13.43,-30.94 13.31,-40.85 54.99,-21.71 64.49,-50.56 27.93,-86.5l-942.46 -926.25 758.94 0.55 97.25 95.57 102.25 -3.93c64.84,-2.48 104.82,-14.39 120.93,-36.09 10.29,-13.34 9.07,-31.87 -3.38,-55.32l623.44 0.45c-47.45,63.36 -137.88,108.14 -272.11,134.71zm-449.44 79.8l793.27 779.6c118.29,-4.56 189.12,-16.15 212.13,-35.17 23.04,-19 11.97,-54.45 -33.86,-106.33 -44.81,-51.54 -130.21,-138.89 -254.82,-261.35 -25.35,-24.91 -85.3,-81.79 -179.53,-170.28 -93.53,-88.52 -155.9,-141.62 -185.71,-159.33 -30.5,-17.69 -65.07,-31.16 -104.27,-40.36 -39.92,-9.2 -88.12,-12.9 -144.93,-10.72l-102.28 3.94z"/>
  <path class="fil1" d="M10005.09 13222.89l-414.67 1130.43 156.53 -7.96c42.55,-2.15 76.65,-11.82 102.87,-28.4 25.7,-17.22 53.55,-52.43 83.5,-105.64 52.13,-95.43 87.15,-152.22 104.72,-171.66 18.1,-18.81 39.01,-29.15 62.56,-30.34 115.5,-5.86 179.37,-5.13 192.11,2.83 11.98,8 7.41,40.73 -13.89,98.79l-241.73 659.06c-15.12,41.19 -32.62,68.6 -51.53,81.48 -19.89,13.6 -67.72,21.98 -144.46,25.89 -50.15,2.54 -80.6,-3.85 -91.13,-19.88 -11.52,-15.33 -11.14,-61.08 0.88,-136.57 8.78,-68.7 8.43,-110.42 -1.58,-125.84 -10.26,-14.7 -32.34,-21.54 -65.76,-19.85l-177.8 9.03 -499.36 1361.38 119.28 -6.06c73.69,-3.75 131.31,-24.58 172.53,-61.81 40.72,-37.83 123.72,-144.1 248.67,-320.11 51.58,-73.52 94.73,-122.1 129.51,-145.74 35.53,-23.68 86.1,-37.5 152.95,-40.89 91.94,-4.68 127.85,19.35 108.55,72.03 -5.95,16.19 -17.43,39.31 -34.65,70l-247.53 453.27c-44.39,82.44 -74.64,132.33 -90.49,149.06 -15.29,17.34 -48.64,26.99 -98.78,29.52l-1486.97 75.54c-36.48,1.86 -58.04,-4.38 -62.24,-19.39 -5.19,-14.31 5.6,-57.94 32.35,-130.84 16.84,-45.94 55.81,-81.07 115.94,-104.65 92.45,-34.53 148.06,-78.43 167.36,-131.09l905.35 -2468.13c7.67,-24.93 -16.6,-48.2 -72.77,-69.87 -37.88,-14.65 -58.53,-29.5 -60.95,-45.29 -2.64,-15.12 7.43,-52.74 29.72,-113.51 18.57,-50.66 34.52,-81.94 47.1,-91.84 12.07,-10.56 40.4,-16.64 82.95,-18.77l1425.41 -72.42c35.69,-1.8 59.54,2.27 71.79,11.62 12.76,9.93 16.51,34.25 10.25,73.69l-73.54 505.38c-3.57,26.02 -6.97,43.43 -10.46,52.91 -13.11,35.77 -55.26,55.13 -126.7,58.77 -80.54,4.1 -131.51,-1.27 -151.92,-16.8 -20.62,-14.87 -32.13,-54.68 -32.91,-119.6 -2.75,-116.53 -12.56,-197.5 -29.92,-241.69 -16.31,-44.9 -45.9,-65.95 -87.68,-63.83l-153.46 7.79z"/>
  <path class="fil1" d="M16996.33 18058.95l-368.06 400.9 -1.79 0.1 -710.2 -48.69 1273.42 -1387.12c30.01,-32.66 45.24,-56.8 45.78,-72.49 -0.23,-15.59 -16.15,-30.68 -51.25,-43.8 -23.87,-10.19 -14.64,-38.36 29.4,-86.35 4.7,-5.13 30.74,-32.73 78.12,-82.8 57.36,-53.46 117.51,-83.48 179.56,-89.97l1400.66 -146.85c42.18,-4.43 65.98,-1.72 72.13,7.45 5.52,9.85 -6.72,36 -37.46,78.55 -5.5,7.51 -13.22,18.17 -22.46,31.28l-282.11 406.12c-18.56,26.25 -36.04,48.33 -53.09,66.89 -37.02,40.32 -91.26,63.95 -163.31,71.5 -95.85,10.06 -142.12,1.57 -138.24,-26.03 3.08,-27.51 34.42,-97.87 91.74,-210.88 34.96,-69.02 48.22,-114.4 40.46,-136.13 -7.77,-21.73 -43.56,-29.54 -108.71,-22.73 -17.63,1.86 -52.37,7.25 -104.19,16.15l-983.55 1071.36 116.5 -12.2c60.56,-6.34 113.29,-22.28 157.64,-47.2 44.93,-25.51 97.63,-66.32 159.45,-123.12 71.41,-64.18 120.67,-105.78 149.44,-125 27.91,-19.11 85.2,-33.21 171.85,-42.31 59.77,-6.26 91.11,-4.92 94.58,3.38 3.62,8.87 -7.87,27.43 -34.32,56.23l-620.46 675.86c-26.43,28.81 -49.61,48.01 -69.32,58.16 -19.91,9.63 -61.59,18.05 -125.25,24.71 -76.66,8.05 -115.67,2.29 -116.29,-16.71 -0.54,-19.04 33.1,-69.99 98.73,-152.07 64.75,-82.57 47.54,-118.92 -52.15,-108.48l-117.25 12.29z"/>
  <path class="fil2 str1" d="M10217.27 11852.55c-136.56,167.64 -301.88,248.74 -496.02,244.07 -303.26,-7.28 -546.55,-190.84 -730.65,-551.39 -184.06,-360.57 -270.27,-784.28 -258.53,-1271.91 13.29,-553.1 133.16,-998.2 358.89,-1336.1 225.71,-337.93 487.21,-503.31 784.44,-496.14 142.24,3.41 267.76,43.31 376.63,118.97 34.81,23.42 61.64,34.61 80.48,35.05 27.09,0.67 50.26,-23.64 70.24,-72.84 19.17,-45.45 50.57,-67.29 94.21,-66.25l27.11 0.66 69.86 6.18c47.24,8.67 75.77,42.48 86.42,101.49l123.81 705.44c13.33,72.59 18.94,121.69 18.33,146.51 -1.24,51.94 -40.26,76.6 -118.49,74.72 -76.79,-1.85 -125.42,-14.32 -147.46,-36.67 -21.29,-22.35 -63.84,-100.93 -126.86,-235.73 -83.73,-181.21 -158.24,-307.98 -223.52,-379.56 -65.29,-71.61 -135.93,-108.7 -212.68,-110.53 -201.67,-4.86 -306.35,153 -314.03,472.81l-56.92 2366.63c-4.17,173.06 49.44,260.92 160.06,263.59 121.15,2.92 183.42,-82.16 187.59,-255.22l27.72 -1152.85c1.79,-74.49 -23.37,-124.04 -74.78,-147.12 -55.87,-24.69 -82.56,-73.52 -80.81,-145.77 1.87,-78.24 10.52,-124.73 25.2,-139.44 15.42,-15.43 47.22,-22.19 95.35,-21.04l933.87 22.45c45.14,1.11 75.8,10.11 90.47,26.27 15.4,16.95 22.05,54 20.67,111.19 -1.44,60.2 -6.96,100.72 -17.21,120.82 -10.3,20.81 -33.27,36.84 -70.46,49.49 -53.13,17.55 -80.45,57.56 -81.92,119.26l-36.06 1499.73c-2.18,90.3 -9.55,145.85 -21.4,168.91 -12.58,22.29 -43.71,32.82 -93.37,31.62 -45.9,-1.11 -78.19,-4.88 -98.33,-12.14 -19.4,-7.24 -46.78,-28.25 -81.32,-62.96 -95.53,-97.91 -192.61,-161.99 -290.53,-192.2z"/>
  <path class="fil3" d="M8002.35 3086.24c-91.03,-582.07 -217.38,-673.38 -681.41,-1292.7l457.78 0.33c207.62,318.63 410.43,707.58 608.72,1162.26 56.66,129.95 198.84,787.55 197.79,798.56 -0.66,6.73 -695.94,12.93 -754.93,12.24 -394.29,-906.27 -1249.21,-1533.63 -2044.27,-1969.85l-7.15 -4.66 990.72 0.72c501.27,384.07 883.74,676.17 1232.75,1293.1z"/>
  <path class="fil1" d="M11842.43 18724.18l261.61 -506.28c28.94,-54.91 33.7,-95.33 12.95,-120.53 -18.67,-25.95 -17.39,-54.17 5.72,-86.21l85.85 -118.95c39.07,-54.13 84.27,-80.8 136.92,-80.76l822.4 0.59c49.6,0.04 73.63,6.92 72.32,21.42 -1.29,14.49 -11.03,34.32 -29.19,59.48l-85.85 118.95c-32.47,44.99 -77.36,75.47 -134.14,90.69 -58.52,14.45 -98.13,36.55 -119.04,65.52 -5.51,7.63 -16.76,27.45 -34.32,60.25l-240.71 451.25 -754.52 44.58zm1089.15 -64.35l370.54 -409.78c12.95,-13.72 23.84,-26.69 33.74,-40.4 33.02,-45.76 38.2,-84.68 15.75,-115.97 -22.87,-32.81 -11.31,-81.63 35.47,-146.44 55.03,-76.25 88.34,-118.19 99.41,-125.05 11.04,-6.86 36.91,-9.9 78.11,-9.87l407.39 0.31c37.37,0.02 57.72,4.61 62,14.53 4.28,9.93 -6.33,32.04 -31.09,66.35l-69.89 96.84c-30.27,41.94 -70.71,74.71 -122.66,99.09 -76.2,35.8 -136.77,78.48 -184.32,129.56l-382.02 422.37 -312.43 18.46zm-2174.91 128.5l301.43 -571.19c26.62,-49.56 31.29,-93.05 14.33,-131.96 -7.81,-19.85 -1.64,-44.25 19.82,-73.99l76.5 -106c26.96,-37.35 50.46,-62.51 70.49,-75.47 19.26,-12.96 47.34,-19.04 83.19,-19.02l749.93 0.54c41.95,0.04 64.25,6.16 67.1,19.14 2.09,12.97 -9.96,38.13 -36.92,75.49l-79.25 109.8c-22.01,30.5 -57.51,56.42 -106.82,79.26 -44.61,20.57 -76.38,43.44 -94.53,68.6 -12.11,16.78 -29.54,47.27 -52.31,91.51l-258.2 488.7 -754.76 44.59z"/>
 </g>
</svg>
